<mxfile host="app.diagrams.net" agent="Mozilla/5.0 (Windows NT 10.0; Win64; x64) AppleWebKit/537.36 (KHTML, like Gecko) Chrome/129.0.0.0 Safari/537.36" version="24.7.17">
  <diagram name="Page-1" id="lcxDYItrpUZwwGZDiOKl">
    <mxGraphModel dx="3000" dy="1491" grid="1" gridSize="10" guides="1" tooltips="1" connect="1" arrows="1" fold="1" page="1" pageScale="1" pageWidth="1200" pageHeight="1600" math="0" shadow="0">
      <root>
        <mxCell id="0" />
        <mxCell id="1" parent="0" />
        <mxCell id="XftjJ_hVDuX7Q3CUeh2v-1" value="" style="strokeWidth=1;shadow=0;dashed=0;align=center;html=1;shape=mxgraph.mockup.containers.browserWindow;rSize=0;strokeColor2=#008cff;strokeColor3=#c4c4c4;mainText=,;recursiveResize=0;movable=1;resizable=1;rotatable=1;deletable=1;editable=1;locked=0;connectable=1;labelBorderColor=default;fillColor=#f5f5f5;fontColor=#333333;strokeColor=#666666;" parent="1" vertex="1">
          <mxGeometry x="70" y="190" width="1150" height="1030" as="geometry" />
        </mxCell>
        <mxCell id="XftjJ_hVDuX7Q3CUeh2v-2" value="Register" style="strokeWidth=1;shadow=0;dashed=0;align=center;html=1;shape=mxgraph.mockup.containers.anchor;fontSize=14;fontColor=#666666;align=left;whiteSpace=wrap;movable=1;resizable=1;rotatable=1;deletable=1;editable=1;locked=0;connectable=1;" parent="XftjJ_hVDuX7Q3CUeh2v-1" vertex="1">
          <mxGeometry x="60" y="12" width="130" height="26" as="geometry" />
        </mxCell>
        <object label="http://localhost/staff/joinus.php" link="http://localhost/staff/deliveredorders.php" id="XftjJ_hVDuX7Q3CUeh2v-3">
          <mxCell style="strokeWidth=1;shadow=0;dashed=0;align=center;html=1;shape=mxgraph.mockup.containers.anchor;rSize=0;fontSize=17;fontColor=#666666;align=left;" parent="XftjJ_hVDuX7Q3CUeh2v-1" vertex="1">
            <mxGeometry x="130" y="60" width="250" height="26" as="geometry" />
          </mxCell>
        </object>
        <mxCell id="vTgFCR5DnPGkfmb_Sr8T-18" value="" style="rounded=1;whiteSpace=wrap;html=1;fillColor=#f5f5f5;fontColor=#333333;strokeColor=#666666;" parent="XftjJ_hVDuX7Q3CUeh2v-1" vertex="1">
          <mxGeometry x="460" y="620" width="230" height="40" as="geometry" />
        </mxCell>
        <mxCell id="yBq3BtFHDBc3tWL0lMd--1" value="" style="rounded=1;whiteSpace=wrap;html=1;fillColor=none;strokeColor=#999999;" vertex="1" parent="XftjJ_hVDuX7Q3CUeh2v-1">
          <mxGeometry x="350" y="190" width="450" height="680" as="geometry" />
        </mxCell>
        <mxCell id="yBq3BtFHDBc3tWL0lMd--2" value="Spincycle" style="text;html=1;align=center;verticalAlign=middle;whiteSpace=wrap;rounded=0;fontColor=#666666;fontStyle=1;fontSize=18;" vertex="1" parent="XftjJ_hVDuX7Q3CUeh2v-1">
          <mxGeometry x="540" y="230" width="60" height="30" as="geometry" />
        </mxCell>
        <mxCell id="yBq3BtFHDBc3tWL0lMd--3" value="" style="rounded=1;whiteSpace=wrap;html=1;fillColor=#f5f5f5;fontColor=#333333;strokeColor=#666666;" vertex="1" parent="XftjJ_hVDuX7Q3CUeh2v-1">
          <mxGeometry x="460" y="619" width="230" height="40" as="geometry" />
        </mxCell>
        <mxCell id="yBq3BtFHDBc3tWL0lMd--4" value="" style="shape=or;whiteSpace=wrap;html=1;rotation=-180;fillColor=#dae8fc;strokeColor=#DAE8FC;" vertex="1" parent="XftjJ_hVDuX7Q3CUeh2v-1">
          <mxGeometry x="465" y="779" width="40" height="50" as="geometry" />
        </mxCell>
        <mxCell id="yBq3BtFHDBc3tWL0lMd--5" value="" style="shape=or;whiteSpace=wrap;html=1;rotation=0;strokeColor=#DAE8FC;fillColor=#DAE8FC;" vertex="1" parent="XftjJ_hVDuX7Q3CUeh2v-1">
          <mxGeometry x="650" y="779" width="40" height="50" as="geometry" />
        </mxCell>
        <mxCell id="yBq3BtFHDBc3tWL0lMd--6" value="" style="rounded=0;whiteSpace=wrap;html=1;strokeColor=#DAE8FC;fillColor=#dae8fc;" vertex="1" parent="XftjJ_hVDuX7Q3CUeh2v-1">
          <mxGeometry x="505" y="779" width="145" height="50" as="geometry" />
        </mxCell>
        <mxCell id="yBq3BtFHDBc3tWL0lMd--8" value="" style="rounded=1;whiteSpace=wrap;html=1;fillColor=#f5f5f5;fontColor=#333333;strokeColor=#666666;" vertex="1" parent="XftjJ_hVDuX7Q3CUeh2v-1">
          <mxGeometry x="460" y="479" width="230" height="40" as="geometry" />
        </mxCell>
        <mxCell id="yBq3BtFHDBc3tWL0lMd--7" value="" style="rounded=1;whiteSpace=wrap;html=1;fillColor=#f5f5f5;fontColor=#333333;strokeColor=#666666;" vertex="1" parent="XftjJ_hVDuX7Q3CUeh2v-1">
          <mxGeometry x="460" y="549" width="230" height="40" as="geometry" />
        </mxCell>
        <mxCell id="yBq3BtFHDBc3tWL0lMd--11" value="Register" style="text;html=1;align=center;verticalAlign=middle;whiteSpace=wrap;rounded=0;fontSize=17;" vertex="1" parent="XftjJ_hVDuX7Q3CUeh2v-1">
          <mxGeometry x="545" y="789" width="60" height="30" as="geometry" />
        </mxCell>
        <mxCell id="yBq3BtFHDBc3tWL0lMd--12" value="Username" style="text;html=1;align=center;verticalAlign=middle;whiteSpace=wrap;rounded=0;" vertex="1" parent="XftjJ_hVDuX7Q3CUeh2v-1">
          <mxGeometry x="470" y="484" width="60" height="30" as="geometry" />
        </mxCell>
        <mxCell id="yBq3BtFHDBc3tWL0lMd--13" value="email" style="text;html=1;align=center;verticalAlign=middle;whiteSpace=wrap;rounded=0;" vertex="1" parent="XftjJ_hVDuX7Q3CUeh2v-1">
          <mxGeometry x="470" y="549" width="60" height="30" as="geometry" />
        </mxCell>
        <mxCell id="yBq3BtFHDBc3tWL0lMd--14" value="Password" style="text;html=1;align=center;verticalAlign=middle;whiteSpace=wrap;rounded=0;" vertex="1" parent="XftjJ_hVDuX7Q3CUeh2v-1">
          <mxGeometry x="470" y="619" width="60" height="40" as="geometry" />
        </mxCell>
        <mxCell id="yBq3BtFHDBc3tWL0lMd--18" value="profile picture" style="ellipse;whiteSpace=wrap;html=1;aspect=fixed;" vertex="1" parent="XftjJ_hVDuX7Q3CUeh2v-1">
          <mxGeometry x="530" y="340" width="80" height="80" as="geometry" />
        </mxCell>
        <mxCell id="yBq3BtFHDBc3tWL0lMd--15" value="Verfy Password" style="text;html=1;align=center;verticalAlign=middle;whiteSpace=wrap;rounded=0;" vertex="1" parent="1">
          <mxGeometry x="560" y="876" width="118" height="40" as="geometry" />
        </mxCell>
        <mxCell id="yBq3BtFHDBc3tWL0lMd--16" value="" style="rounded=1;whiteSpace=wrap;html=1;fillColor=#f5f5f5;fontColor=#333333;strokeColor=#666666;" vertex="1" parent="1">
          <mxGeometry x="529" y="876" width="230" height="40" as="geometry" />
        </mxCell>
        <mxCell id="yBq3BtFHDBc3tWL0lMd--17" value="Verify Password" style="text;html=1;align=center;verticalAlign=middle;whiteSpace=wrap;rounded=0;" vertex="1" parent="1">
          <mxGeometry x="536" y="881" width="109" height="30" as="geometry" />
        </mxCell>
      </root>
    </mxGraphModel>
  </diagram>
</mxfile>
